<svg width="30" height="30" viewBox="0 0 30 30" fill="none" xmlns="http://www.w3.org/2000/svg">
<path fill-rule="evenodd" clip-rule="evenodd" d="M8.34821 29.884C7.81064 29.884 7.35212 29.6864 6.97266 29.2911C6.59319 28.8958 6.40346 28.4294 6.40346 27.8918H10.293C10.293 28.4294 10.1032 28.8958 9.72377 29.2911C9.34431 29.6864 8.88579 29.884 8.34821 29.884ZM14.7517 23.9549L16.6964 25.9471V26.9431H0V25.9471L1.94475 23.9549V18.5475C1.94475 17.0613 2.41118 15.741 3.34403 14.5868C4.27688 13.4326 5.4548 12.6816 6.87779 12.3338V11.6223C6.87779 11.2112 7.01218 10.8634 7.28097 10.5788C7.54976 10.2942 7.90551 10.1519 8.34821 10.1519C8.79092 10.1519 9.14667 10.2942 9.41546 10.5788C9.68425 10.8634 9.81864 11.2112 9.81864 11.6223V12.3338C11.2416 12.6816 12.4195 13.4326 13.3524 14.5868C14.2852 15.741 14.7517 17.0613 14.7517 18.5475V23.9549Z" fill="#323332"/>
<path fill-rule="evenodd" clip-rule="evenodd" d="M20 20C25.5228 20 30 15.5228 30 10C30 4.47715 25.5228 0 20 0C14.4772 0 10 4.47715 10 10C10 15.5228 14.4772 20 20 20Z" fill="#407EFF"/>
<path d="M22.2852 11.1348H23.4688V12.0195H22.2852V14H21.1953V12.0195H17.3105V11.3809L21.1309 5.46875H22.2852V11.1348ZM18.541 11.1348H21.1953V6.95117L21.0664 7.18555L18.541 11.1348Z" fill="white"/>
</svg>
