<svg width="32" height="35" viewBox="0 0 32 35" fill="none" xmlns="http://www.w3.org/2000/svg">
<path fill-rule="evenodd" clip-rule="evenodd" d="M1.17188 30.6488C1.14062 30.6134 1.125 30.5957 1.125 30.5957V30.4896C0.375 29.2521 0 27.8908 0 26.4057C0 24.1427 0.765625 22.2687 2.29688 20.7837C2.17188 21.5616 2.10938 22.1627 2.10938 22.587C2.10938 25.0267 2.90625 27.1217 4.5 28.872C6.09375 30.6222 8.01562 31.4974 10.2656 31.4974C10.9844 31.4974 11.6719 31.3913 12.3281 31.1791C10.9219 33.0532 9.125 33.9902 6.9375 33.9902C6.09375 33.9902 5.1875 33.778 4.21875 33.3537H4.17188C4.04688 33.283 3.92188 33.2476 3.79688 33.2476C3.70312 33.2476 3.5625 33.283 3.375 33.3537L0.75 34.5206L1.3125 31.1791C1.3125 31.0024 1.26562 30.8256 1.17188 30.6488ZM11.3438 12.4567C13.5938 12.4567 15.5156 13.3318 17.1094 15.0821C18.7031 16.8323 19.5 18.9273 19.5 21.3671C19.5 23.0289 19.0625 24.6201 18.1875 26.1405L18.1406 26.1936C18.1094 26.2289 18.0938 26.2643 18.0938 26.2996C18 26.5118 17.9531 26.7239 17.9531 26.9361L18.75 30.8609L15.5156 29.4819C15.3281 29.4112 15.1719 29.3758 15.0469 29.3758C14.9531 29.3758 14.8125 29.4112 14.625 29.4819L14.5312 29.535C14.2812 29.641 13.9062 29.7648 13.4062 29.9062C12.75 30.1184 12.0625 30.2245 11.3438 30.2245C9.09375 30.2245 7.17969 29.3582 5.60156 27.6256C4.02344 25.893 3.23438 23.8068 3.23438 21.3671C3.23438 20.7306 3.28125 20.1118 3.375 19.5107C3.75 17.4953 4.6875 15.8158 6.1875 14.4721C7.6875 13.1285 9.40625 12.4567 11.3438 12.4567Z" fill="#323332"/>
<path fill-rule="evenodd" clip-rule="evenodd" d="M22 23.6019C27.5228 23.6019 32 18.536 32 12.287C32 6.03804 27.5228 0.972229 22 0.972229C16.4772 0.972229 12 6.03804 12 12.287C12 18.536 16.4772 23.6019 22 23.6019Z" fill="#42229D"/>
<path d="M24.2852 12.5015H25.4688V13.3862H24.2852V15.3667H23.1953V13.3862H19.3105V12.7476L23.1309 6.83545H24.2852V12.5015ZM20.541 12.5015H23.1953V8.31787L23.0664 8.55225L20.541 12.5015Z" fill="white"/>
</svg>
