<svg width="32" height="31" viewBox="0 0 32 31" fill="none" xmlns="http://www.w3.org/2000/svg">
<path fill-rule="evenodd" clip-rule="evenodd" d="M0.890663 18.153C0.578164 17.9763 0.37504 17.7818 0.28129 17.5696C0.218791 17.3575 0.226603 17.216 0.304728 17.1453C0.382853 17.0746 0.562539 17.0392 0.843788 17.0392H9.79688H18.75C19.0312 17.0392 19.2109 17.0746 19.289 17.1453C19.3671 17.216 19.375 17.3575 19.3125 17.5696C19.2187 17.7818 19.0156 17.9763 18.7031 18.153C13.5469 21.3353 10.9062 22.9618 10.7812 23.0326C10.5312 23.174 10.2031 23.2447 9.79688 23.2447C9.39063 23.2447 9.0625 23.174 8.8125 23.0326C8.6875 22.9618 6.04689 21.3353 0.890663 18.153ZM19.125 18.3652C19.3438 18.3298 19.4609 18.321 19.4766 18.3387C19.4922 18.3564 19.5 18.4536 19.5 18.6304V29.5032C19.5 29.7507 19.3828 29.9983 19.1484 30.2458C18.9141 30.4933 18.6875 30.617 18.4688 30.617H9.79688H1.125C0.875 30.617 0.625 30.4933 0.375 30.2458C0.125 29.9983 0 29.7507 0 29.5032V18.6304C0 18.3122 0.140625 18.2238 0.421875 18.3652C0.515625 18.4359 0.90625 18.7276 1.59375 19.2403C2.28125 19.753 3.13281 20.3983 4.14844 21.1762C5.16406 21.9541 5.98438 22.5729 6.60938 23.0326L2.71875 27.9651C2.625 28.0712 2.60938 28.1596 2.67188 28.2303C2.70312 28.2657 2.75 28.2745 2.8125 28.2568C2.875 28.2392 2.92188 28.2126 2.95312 28.1773L7.54688 23.7751C8.20312 24.2701 8.625 24.5707 8.8125 24.6768C9.0625 24.8182 9.39062 24.8889 9.79688 24.8889C10.2031 24.8889 10.5312 24.8182 10.7812 24.6768C10.9688 24.5707 11.3906 24.2701 12.0469 23.7751L16.6406 28.1773C16.6719 28.2126 16.7188 28.2392 16.7812 28.2568C16.8438 28.2745 16.8906 28.2657 16.9219 28.2303C16.9531 28.195 16.9219 28.1066 16.8281 27.9651L12.9844 23.0326C13.6094 22.5729 14.4219 21.9541 15.4219 21.1762C16.4219 20.3983 17.2656 19.753 17.9531 19.2403C18.6406 18.7276 19.0312 18.4359 19.125 18.3652Z" fill="#323332"/>
<path fill-rule="evenodd" clip-rule="evenodd" d="M22 23.6019C27.5228 23.6019 32 18.536 32 12.287C32 6.03804 27.5228 0.972229 22 0.972229C16.4772 0.972229 12 6.03804 12 12.287C12 18.536 16.4772 23.6019 22 23.6019Z" fill="#FFAD00"/>
<path d="M24.2852 12.5015H25.4688V13.3862H24.2852V15.3667H23.1953V13.3862H19.3105V12.7476L23.1309 6.83545H24.2852V12.5015ZM20.541 12.5015H23.1953V8.31787L23.0664 8.55225L20.541 12.5015Z" fill="white"/>
</svg>
